<svg width="34" height="23" viewBox="0 0 34 23" fill="none" xmlns="http://www.w3.org/2000/svg">
<path d="M1.1345 22.538C0.813167 22.538 0.543833 22.4283 0.3265 22.209C0.108833 21.9897 0 21.718 0 21.394C0 21.0697 0.108833 20.801 0.3265 20.588C0.543833 20.3753 0.813167 20.269 1.1345 20.269H32.8655C33.1868 20.269 33.4562 20.3787 33.6735 20.598C33.8912 20.8173 34 21.0892 34 21.4135C34 21.7375 33.8912 22.006 33.6735 22.219C33.4562 22.4317 33.1868 22.538 32.8655 22.538H1.1345ZM1.1345 12.4035C0.813167 12.4035 0.543833 12.2938 0.3265 12.0745C0.108833 11.8552 0 11.5833 0 11.259C0 10.935 0.108833 10.6665 0.3265 10.4535C0.543833 10.2408 0.813167 10.1345 1.1345 10.1345H32.8655C33.1868 10.1345 33.4562 10.2442 33.6735 10.4635C33.8912 10.6828 34 10.9547 34 11.279C34 11.603 33.8912 11.8715 33.6735 12.0845C33.4562 12.2972 33.1868 12.4035 32.8655 12.4035H1.1345ZM1.1345 2.269C0.813167 2.269 0.543833 2.15933 0.3265 1.94C0.108833 1.72067 0 1.44883 0 1.1245C0 0.8005 0.108833 0.532 0.3265 0.319C0.543833 0.106334 0.813167 0 1.1345 0H32.8655C33.1868 0 33.4562 0.109668 33.6735 0.329001C33.8912 0.548334 34 0.82 34 1.144C34 1.46833 33.8912 1.737 33.6735 1.95C33.4562 2.16267 33.1868 2.269 32.8655 2.269H1.1345Z" fill="#3DCFB6"/>
</svg>
